<?xml version="1.0" encoding="UTF-8"?>
<!DOCTYPE svg  PUBLIC '-//W3C//DTD SVG 1.1//EN'  'http://www.w3.org/Graphics/SVG/1.1/DTD/svg11.dtd'>
<svg clip-rule="evenodd" fill-rule="evenodd" stroke-linejoin="round" stroke-miterlimit="2" version="1.1" viewBox="0 0 512 512" xml:space="preserve" xmlns="http://www.w3.org/2000/svg">
    <g transform="matrix(6.057 0 0 6.057 -1294.6 -1294.6)">
        <g transform="translate(206.3 213.91)">
            <circle cx="32.979" cy="32.918" r="9.046"/>
        </g>
        <g transform="translate(209 214.2)">
            <path d="m84.76 51.337c-0.551 0.086-1.115 0.131-1.689 0.131-5.99 0-10.853-4.863-10.853-10.852 0-0.575 0.045-1.139 0.131-1.69 0.551-0.086 1.115-0.131 1.689-0.131 5.99 0 10.853 4.863 10.853 10.853 0 0.574-0.045 1.139-0.131 1.689z"/>
        </g>
        <g transform="translate(236.18 214.05)">
            <circle cx="32.979" cy="32.918" r="9.046"/>
        </g>
        <g transform="translate(209.24 213.91)">
            <path d="m44.916 6.233c0.393-0.143 35.082 12.844 35.082 12.844 0.726 0.264 1.101 1.068 0.836 1.793l-0.956 2.631c-0.265 0.726-1.068 1.101-1.794 0.837l-33.278-12.107-33.11 12.055c-0.726 0.264-1.53-0.111-1.794-0.837l-0.958-2.63c-0.264-0.726 0.111-1.53 0.836-1.794l35.136-12.792z"/>
        </g>
        <g transform="translate(209.24 213.91)">
            <path d="m32.367 77.954h-16.251s-0.46-0.197-0.628-0.349-0.381-0.792-0.381-0.792v-15.759s-0.436-3.23 2.052-6.57c0.672-0.901 2.914-3.159 4.774-4.39 2.693-1.782 6.363-2.064 6.363-2.064h33.679s3.69 0.048 6.16 2.068c1.331 1.088 3.397 2.453 4.649 4.378 2.497 3.839 2.148 7.607 2.148 7.607v14.586s-0.1 0.747-0.244 0.887c-0.144 0.141-0.925 0.398-0.925 0.398h-16.267c-0.47-2.167-1.977-4.084-4.14-5.475-2.244-1.443-5.194-1.26-8.424-1.26-3.165 0-6.061-0.218-8.288 1.174-2.236 1.397-3.796 3.349-4.277 5.561zm12.565-24.282c-3.507 0-6.355 2.847-6.355 6.354s2.848 6.354 6.355 6.354 6.354-2.847 6.354-6.354-2.847-6.354-6.354-6.354z"/>
        </g>
    </g>
</svg>
